<!--?xml version="1.0" encoding="utf-8"?-->
<!-- Generator: Adobe Illustrator 15.1.0, SVG Export Plug-In . SVG Version: 6.00 Build 0)  -->

<svg version="1.1" id="_x32_" xmlns="http://www.w3.org/2000/svg" xmlns:xlink="http://www.w3.org/1999/xlink" x="0px" y="0px" width="512px" height="512px" viewBox="0 0 512 512" style="width: 256px; height: 256px; opacity: 1;" xml:space="preserve">
<style type="text/css">

	.st0{fill:#4B4B4B;}

</style>
<g>
	<path class="st0" d="M256,0c-73.563,0-133.203,59.641-133.203,133.203S182.438,266.406,256,266.406s133.203-59.641,133.203-133.203
		S329.563,0,256,0z M207.156,145.719c-19.172,0-34.719-15.547-34.719-34.719s15.547-34.719,34.719-34.719
		c19.188,0,34.719,15.547,34.719,34.719S226.344,145.719,207.156,145.719z" style="fill: rgb(223, 86, 86);"></path>
	<path class="st0" d="M256,310.813c-9.875,0-19.484-1.031-28.859-2.75v175.078C227.141,499.078,240.063,512,256,512
		s28.859-12.922,28.859-28.859V308.063C275.484,309.781,265.875,310.813,256,310.813z" style="fill: rgb(223, 86, 86);"></path>
</g>
</svg>
